<?xml version="1.0" encoding="UTF-8"?>
<?xml-stylesheet href="https://cdnjs.cloudflare.com/ajax/libs/font-awesome/6.7.2/css/all.min.css" type="text/css"?>
<svg id="graph-726" width="100%" xmlns="http://www.w3.org/2000/svg" style="overflow: hidden; max-width: 100%; touch-action: none; user-select: none; -webkit-user-drag: none; -webkit-tap-highlight-color: rgba(0, 0, 0, 0); background-color: rgb(255, 255, 255);" role="graphics-document document" aria-roledescription="sequence" height="100%" xmlns:xlink="http://www.w3.org/1999/xlink" xmlns:ev="http://www.w3.org/2001/xml-events"><defs><symbol id="computer" width="24" height="24"><path transform="scale(.5)" d="M2 2v13h20v-13h-20zm18 11h-16v-9h16v9zm-10.228 6l.466-1h3.524l.467 1h-4.457zm14.228 3h-24l2-6h2.104l-1.33 4h18.45l-1.297-4h2.073l2 6zm-5-10h-14v-7h14v7z"></path></symbol></defs><defs><symbol id="database" fill-rule="evenodd" clip-rule="evenodd"><path transform="scale(.5)" d="M12.258.001l.256.004.255.005.253.008.251.01.249.012.247.015.246.016.242.019.241.02.239.023.236.024.233.027.231.028.229.031.225.032.223.034.22.036.217.038.214.04.211.041.208.043.205.045.201.046.198.048.194.05.191.051.187.053.183.054.18.056.175.057.172.059.168.06.163.061.16.063.155.064.15.066.074.033.073.033.071.034.07.034.069.035.068.035.067.035.066.035.064.036.064.036.062.036.06.036.06.037.058.037.058.037.055.038.055.038.053.038.052.038.051.039.05.039.048.039.047.039.045.04.044.04.043.04.041.04.04.041.039.041.037.041.036.041.034.041.033.042.032.042.03.042.029.042.027.042.026.043.024.043.023.043.021.043.02.043.018.044.017.043.015.044.013.044.012.044.011.045.009.044.007.045.006.045.004.045.002.045.001.045v17l-.001.045-.002.045-.004.045-.006.045-.007.045-.009.044-.011.045-.012.044-.013.044-.015.044-.017.043-.018.044-.02.043-.021.043-.023.043-.024.043-.026.043-.027.042-.029.042-.03.042-.032.042-.033.042-.034.041-.036.041-.037.041-.039.041-.04.041-.041.04-.043.04-.044.04-.045.04-.047.039-.048.039-.05.039-.051.039-.052.038-.053.038-.055.038-.055.038-.058.037-.058.037-.06.037-.06.036-.062.036-.064.036-.064.036-.066.035-.067.035-.068.035-.069.035-.07.034-.071.034-.073.033-.074.033-.15.066-.155.064-.16.063-.163.061-.168.06-.172.059-.175.057-.18.056-.183.054-.187.053-.191.051-.194.05-.198.048-.201.046-.205.045-.208.043-.211.041-.214.04-.217.038-.22.036-.223.034-.225.032-.229.031-.231.028-.233.027-.236.024-.239.023-.241.02-.242.019-.246.016-.247.015-.249.012-.251.01-.253.008-.255.005-.256.004-.258.001-.258-.001-.256-.004-.255-.005-.253-.008-.251-.01-.249-.012-.247-.015-.245-.016-.243-.019-.241-.02-.238-.023-.236-.024-.234-.027-.231-.028-.228-.031-.226-.032-.223-.034-.22-.036-.217-.038-.214-.04-.211-.041-.208-.043-.204-.045-.201-.046-.198-.048-.195-.05-.19-.051-.187-.053-.184-.054-.179-.056-.176-.057-.172-.059-.167-.06-.164-.061-.159-.063-.155-.064-.151-.066-.074-.033-.072-.033-.072-.034-.07-.034-.069-.035-.068-.035-.067-.035-.066-.035-.064-.036-.063-.036-.062-.036-.061-.036-.06-.037-.058-.037-.057-.037-.056-.038-.055-.038-.053-.038-.052-.038-.051-.039-.049-.039-.049-.039-.046-.039-.046-.04-.044-.04-.043-.04-.041-.04-.04-.041-.039-.041-.037-.041-.036-.041-.034-.041-.033-.042-.032-.042-.03-.042-.029-.042-.027-.042-.026-.043-.024-.043-.023-.043-.021-.043-.02-.043-.018-.044-.017-.043-.015-.044-.013-.044-.012-.044-.011-.045-.009-.044-.007-.045-.006-.045-.004-.045-.002-.045-.001-.045v-17l.001-.045.002-.045.004-.045.006-.045.007-.045.009-.044.011-.045.012-.044.013-.044.015-.044.017-.043.018-.044.02-.043.021-.043.023-.043.024-.043.026-.043.027-.042.029-.042.03-.042.032-.042.033-.042.034-.041.036-.041.037-.041.039-.041.04-.041.041-.04.043-.04.044-.04.046-.04.046-.039.049-.039.049-.039.051-.039.052-.038.053-.038.055-.038.056-.038.057-.037.058-.037.06-.037.061-.036.062-.036.063-.036.064-.036.066-.035.067-.035.068-.035.069-.035.07-.034.072-.034.072-.033.074-.033.151-.066.155-.064.159-.063.164-.061.167-.06.172-.059.176-.057.179-.056.184-.054.187-.053.19-.051.195-.05.198-.048.201-.046.204-.045.208-.043.211-.041.214-.04.217-.038.22-.036.223-.034.226-.032.228-.031.231-.028.234-.027.236-.024.238-.023.241-.02.243-.019.245-.016.247-.015.249-.012.251-.01.253-.008.255-.005.256-.004.258-.001.258.001zm-9.258 20.499v.01l.001.021.003.021.004.022.005.021.006.022.007.022.009.023.01.022.011.023.012.023.013.023.015.023.016.024.017.023.018.024.019.024.021.024.022.025.023.024.024.025.052.049.056.05.061.051.066.051.07.051.075.051.079.052.084.052.088.052.092.052.097.052.102.051.105.052.11.052.114.051.119.051.123.051.127.05.131.05.135.05.139.048.144.049.147.047.152.047.155.047.16.045.163.045.167.043.171.043.176.041.178.041.183.039.187.039.19.037.194.035.197.035.202.033.204.031.209.03.212.029.216.027.219.025.222.024.226.021.23.02.233.018.236.016.24.015.243.012.246.01.249.008.253.005.256.004.259.001.26-.001.257-.004.254-.005.25-.008.247-.011.244-.012.241-.014.237-.016.233-.018.231-.021.226-.021.224-.024.22-.026.216-.027.212-.028.21-.031.205-.031.202-.034.198-.034.194-.036.191-.037.187-.039.183-.04.179-.04.175-.042.172-.043.168-.044.163-.045.16-.046.155-.046.152-.047.148-.048.143-.049.139-.049.136-.05.131-.05.126-.05.123-.051.118-.052.114-.051.11-.052.106-.052.101-.052.096-.052.092-.052.088-.053.083-.051.079-.052.074-.052.07-.051.065-.051.06-.051.056-.05.051-.05.023-.024.023-.025.021-.024.02-.024.019-.024.018-.024.017-.024.015-.023.014-.024.013-.023.012-.023.01-.023.01-.022.008-.022.006-.022.006-.022.004-.022.004-.021.001-.021.001-.021v-4.127l-.077.055-.08.053-.083.054-.085.053-.087.052-.09.052-.093.051-.095.05-.097.05-.1.049-.102.049-.105.048-.106.047-.109.047-.111.046-.114.045-.115.045-.118.044-.12.043-.122.042-.124.042-.126.041-.128.04-.13.04-.132.038-.134.038-.135.037-.138.037-.139.035-.142.035-.143.034-.144.033-.147.032-.148.031-.15.03-.151.03-.153.029-.154.027-.156.027-.158.026-.159.025-.161.024-.162.023-.163.022-.165.021-.166.02-.167.019-.169.018-.169.017-.171.016-.173.015-.173.014-.175.013-.175.012-.177.011-.178.01-.179.008-.179.008-.181.006-.182.005-.182.004-.184.003-.184.002h-.37l-.184-.002-.184-.003-.182-.004-.182-.005-.181-.006-.179-.008-.179-.008-.178-.01-.176-.011-.176-.012-.175-.013-.173-.014-.172-.015-.171-.016-.17-.017-.169-.018-.167-.019-.166-.02-.165-.021-.163-.022-.162-.023-.161-.024-.159-.025-.157-.026-.156-.027-.155-.027-.153-.029-.151-.03-.15-.03-.148-.031-.146-.032-.145-.033-.143-.034-.141-.035-.14-.035-.137-.037-.136-.037-.134-.038-.132-.038-.13-.04-.128-.04-.126-.041-.124-.042-.122-.042-.12-.044-.117-.043-.116-.045-.113-.045-.112-.046-.109-.047-.106-.047-.105-.048-.102-.049-.1-.049-.097-.05-.095-.05-.093-.052-.09-.051-.087-.052-.085-.053-.083-.054-.08-.054-.077-.054v4.127zm0-5.654v.011l.001.021.003.021.004.021.005.022.006.022.007.022.009.022.01.022.011.023.012.023.013.023.015.024.016.023.017.024.018.024.019.024.021.024.022.024.023.025.024.024.052.05.056.05.061.05.066.051.07.051.075.052.079.051.084.052.088.052.092.052.097.052.102.052.105.052.11.051.114.051.119.052.123.05.127.051.131.05.135.049.139.049.144.048.147.048.152.047.155.046.16.045.163.045.167.044.171.042.176.042.178.04.183.04.187.038.19.037.194.036.197.034.202.033.204.032.209.03.212.028.216.027.219.025.222.024.226.022.23.02.233.018.236.016.24.014.243.012.246.01.249.008.253.006.256.003.259.001.26-.001.257-.003.254-.006.25-.008.247-.01.244-.012.241-.015.237-.016.233-.018.231-.02.226-.022.224-.024.22-.025.216-.027.212-.029.21-.03.205-.032.202-.033.198-.035.194-.036.191-.037.187-.039.183-.039.179-.041.175-.042.172-.043.168-.044.163-.045.16-.045.155-.047.152-.047.148-.048.143-.048.139-.05.136-.049.131-.05.126-.051.123-.051.118-.051.114-.052.11-.052.106-.052.101-.052.096-.052.092-.052.088-.052.083-.052.079-.052.074-.051.07-.052.065-.051.06-.05.056-.051.051-.049.023-.025.023-.024.021-.025.02-.024.019-.024.018-.024.017-.024.015-.023.014-.023.013-.024.012-.022.01-.023.01-.023.008-.022.006-.022.006-.022.004-.021.004-.022.001-.021.001-.021v-4.139l-.077.054-.08.054-.083.054-.085.052-.087.053-.09.051-.093.051-.095.051-.097.05-.1.049-.102.049-.105.048-.106.047-.109.047-.111.046-.114.045-.115.044-.118.044-.12.044-.122.042-.124.042-.126.041-.128.04-.13.039-.132.039-.134.038-.135.037-.138.036-.139.036-.142.035-.143.033-.144.033-.147.033-.148.031-.15.03-.151.03-.153.028-.154.028-.156.027-.158.026-.159.025-.161.024-.162.023-.163.022-.165.021-.166.02-.167.019-.169.018-.169.017-.171.016-.173.015-.173.014-.175.013-.175.012-.177.011-.178.009-.179.009-.179.007-.181.007-.182.005-.182.004-.184.003-.184.002h-.37l-.184-.002-.184-.003-.182-.004-.182-.005-.181-.007-.179-.007-.179-.009-.178-.009-.176-.011-.176-.012-.175-.013-.173-.014-.172-.015-.171-.016-.17-.017-.169-.018-.167-.019-.166-.02-.165-.021-.163-.022-.162-.023-.161-.024-.159-.025-.157-.026-.156-.027-.155-.028-.153-.028-.151-.03-.15-.03-.148-.031-.146-.033-.145-.033-.143-.033-.141-.035-.14-.036-.137-.036-.136-.037-.134-.038-.132-.039-.13-.039-.128-.04-.126-.041-.124-.042-.122-.043-.12-.043-.117-.044-.116-.044-.113-.046-.112-.046-.109-.046-.106-.047-.105-.048-.102-.049-.1-.049-.097-.05-.095-.051-.093-.051-.09-.051-.087-.053-.085-.052-.083-.054-.08-.054-.077-.054v4.139zm0-5.666v.011l.001.02.003.022.004.021.005.022.006.021.007.022.009.023.01.022.011.023.012.023.013.023.015.023.016.024.017.024.018.023.019.024.021.025.022.024.023.024.024.025.052.05.056.05.061.05.066.051.07.051.075.052.079.051.084.052.088.052.092.052.097.052.102.052.105.051.11.052.114.051.119.051.123.051.127.05.131.05.135.05.139.049.144.048.147.048.152.047.155.046.16.045.163.045.167.043.171.043.176.042.178.04.183.04.187.038.19.037.194.036.197.034.202.033.204.032.209.03.212.028.216.027.219.025.222.024.226.021.23.02.233.018.236.017.24.014.243.012.246.01.249.008.253.006.256.003.259.001.26-.001.257-.003.254-.006.25-.008.247-.01.244-.013.241-.014.237-.016.233-.018.231-.02.226-.022.224-.024.22-.025.216-.027.212-.029.21-.03.205-.032.202-.033.198-.035.194-.036.191-.037.187-.039.183-.039.179-.041.175-.042.172-.043.168-.044.163-.045.16-.045.155-.047.152-.047.148-.048.143-.049.139-.049.136-.049.131-.051.126-.05.123-.051.118-.052.114-.051.11-.052.106-.052.101-.052.096-.052.092-.052.088-.052.083-.052.079-.052.074-.052.07-.051.065-.051.06-.051.056-.05.051-.049.023-.025.023-.025.021-.024.02-.024.019-.024.018-.024.017-.024.015-.023.014-.024.013-.023.012-.023.01-.022.01-.023.008-.022.006-.022.006-.022.004-.022.004-.021.001-.021.001-.021v-4.153l-.077.054-.08.054-.083.053-.085.053-.087.053-.09.051-.093.051-.095.051-.097.05-.1.049-.102.048-.105.048-.106.048-.109.046-.111.046-.114.046-.115.044-.118.044-.12.043-.122.043-.124.042-.126.041-.128.04-.13.039-.132.039-.134.038-.135.037-.138.036-.139.036-.142.034-.143.034-.144.033-.147.032-.148.032-.15.03-.151.03-.153.028-.154.028-.156.027-.158.026-.159.024-.161.024-.162.023-.163.023-.165.021-.166.02-.167.019-.169.018-.169.017-.171.016-.173.015-.173.014-.175.013-.175.012-.177.01-.178.01-.179.009-.179.007-.181.006-.182.006-.182.004-.184.003-.184.001-.185.001-.185-.001-.184-.001-.184-.003-.182-.004-.182-.006-.181-.006-.179-.007-.179-.009-.178-.01-.176-.01-.176-.012-.175-.013-.173-.014-.172-.015-.171-.016-.17-.017-.169-.018-.167-.019-.166-.02-.165-.021-.163-.023-.162-.023-.161-.024-.159-.024-.157-.026-.156-.027-.155-.028-.153-.028-.151-.03-.15-.03-.148-.032-.146-.032-.145-.033-.143-.034-.141-.034-.14-.036-.137-.036-.136-.037-.134-.038-.132-.039-.13-.039-.128-.041-.126-.041-.124-.041-.122-.043-.12-.043-.117-.044-.116-.044-.113-.046-.112-.046-.109-.046-.106-.048-.105-.048-.102-.048-.1-.05-.097-.049-.095-.051-.093-.051-.09-.052-.087-.052-.085-.053-.083-.053-.08-.054-.077-.054v4.153zm8.74-8.179l-.257.004-.254.005-.25.008-.247.011-.244.012-.241.014-.237.016-.233.018-.231.021-.226.022-.224.023-.22.026-.216.027-.212.028-.21.031-.205.032-.202.033-.198.034-.194.036-.191.038-.187.038-.183.04-.179.041-.175.042-.172.043-.168.043-.163.045-.16.046-.155.046-.152.048-.148.048-.143.048-.139.049-.136.05-.131.05-.126.051-.123.051-.118.051-.114.052-.11.052-.106.052-.101.052-.096.052-.092.052-.088.052-.083.052-.079.052-.074.051-.07.052-.065.051-.06.05-.056.05-.051.05-.023.025-.023.024-.021.024-.02.025-.019.024-.018.024-.017.023-.015.024-.014.023-.013.023-.012.023-.01.023-.01.022-.008.022-.006.023-.006.021-.004.022-.004.021-.001.021-.001.021.001.021.001.021.004.021.004.022.006.021.006.023.008.022.01.022.01.023.012.023.013.023.014.023.015.024.017.023.018.024.019.024.02.025.021.024.023.024.023.025.051.05.056.05.06.05.065.051.07.052.074.051.079.052.083.052.088.052.092.052.096.052.101.052.106.052.11.052.114.052.118.051.123.051.126.051.131.05.136.05.139.049.143.048.148.048.152.048.155.046.16.046.163.045.168.043.172.043.175.042.179.041.183.04.187.038.191.038.194.036.198.034.202.033.205.032.21.031.212.028.216.027.22.026.224.023.226.022.231.021.233.018.237.016.241.014.244.012.247.011.25.008.254.005.257.004.26.001.26-.001.257-.004.254-.005.25-.008.247-.011.244-.012.241-.014.237-.016.233-.018.231-.021.226-.022.224-.023.22-.026.216-.027.212-.028.21-.031.205-.032.202-.033.198-.034.194-.036.191-.038.187-.038.183-.04.179-.041.175-.042.172-.043.168-.043.163-.045.16-.046.155-.046.152-.048.148-.048.143-.048.139-.049.136-.05.131-.05.126-.051.123-.051.118-.051.114-.052.11-.052.106-.052.101-.052.096-.052.092-.052.088-.052.083-.052.079-.052.074-.051.07-.052.065-.051.06-.05.056-.05.051-.05.023-.025.023-.024.021-.024.02-.025.019-.024.018-.024.017-.023.015-.024.014-.023.013-.023.012-.023.01-.023.01-.022.008-.022.006-.023.006-.021.004-.022.004-.021.001-.021.001-.021-.001-.021-.001-.021-.004-.021-.004-.022-.006-.021-.006-.023-.008-.022-.01-.022-.01-.023-.012-.023-.013-.023-.014-.023-.015-.024-.017-.023-.018-.024-.019-.024-.02-.025-.021-.024-.023-.024-.023-.025-.051-.05-.056-.05-.06-.05-.065-.051-.07-.052-.074-.051-.079-.052-.083-.052-.088-.052-.092-.052-.096-.052-.101-.052-.106-.052-.11-.052-.114-.052-.118-.051-.123-.051-.126-.051-.131-.05-.136-.05-.139-.049-.143-.048-.148-.048-.152-.048-.155-.046-.16-.046-.163-.045-.168-.043-.172-.043-.175-.042-.179-.041-.183-.04-.187-.038-.191-.038-.194-.036-.198-.034-.202-.033-.205-.032-.21-.031-.212-.028-.216-.027-.22-.026-.224-.023-.226-.022-.231-.021-.233-.018-.237-.016-.241-.014-.244-.012-.247-.011-.25-.008-.254-.005-.257-.004-.26-.001-.26.001z"></path></symbol></defs><defs><symbol id="clock" width="24" height="24"><path transform="scale(.5)" d="M12 2c5.514 0 10 4.486 10 10s-4.486 10-10 10-10-4.486-10-10 4.486-10 10-10zm0-2c-6.627 0-12 5.373-12 12s5.373 12 12 12 12-5.373 12-12-5.373-12-12-12zm5.848 12.459c.202.038.202.333.001.372-1.907.361-6.045 1.111-6.547 1.111-.719 0-1.301-.582-1.301-1.301 0-.512.77-5.447 1.125-7.445.034-.192.312-.181.343.014l.985 6.238 5.394 1.011z"></path></symbol></defs><defs><marker id="arrowhead" refX="7.9" refY="5" markerUnits="userSpaceOnUse" markerWidth="12" markerHeight="12" orient="auto-start-reverse"><path d="M -1 0 L 10 5 L 0 10 z"></path></marker></defs><defs><marker id="crosshead" markerWidth="15" markerHeight="8" orient="auto" refX="4" refY="4.5"><path fill="none" stroke="#000000" stroke-width="1pt" d="M 1,2 L 6,7 M 6,2 L 1,7" style="stroke-dasharray: 0, 0;"></path></marker></defs><defs><marker id="filled-head" refX="15.5" refY="7" markerWidth="20" markerHeight="28" orient="auto"><path d="M 18,7 L9,13 L14,7 L9,1 Z"></path></marker></defs><defs><marker id="sequencenumber" refX="15" refY="15" markerWidth="60" markerHeight="40" orient="auto"><circle cx="15" cy="15" r="6"></circle></marker></defs><g id="viewport-20260315161755955" class="svg-pan-zoom_viewport" transform="matrix(0.2294592687478583,0,0,0.2294592687478583,323.6209608947638,102.76964248674614)" style="transform: matrix(0.229459, 0, 0, 0.229459, 323.621, 102.77);"><rect x="-116.5" y="2293" fill="rgb(245, 245, 245)" width="1649.5" height="341" class="rect"></rect><g><rect x="1388" y="2752" fill="#eaeaea" stroke="#666" width="150" height="65" name="Arweave" rx="3" ry="3" class="actor actor-bottom"></rect><text x="1463" y="2784.5" dominant-baseline="central" alignment-baseline="central" class="actor actor-box" style="text-anchor: middle; font-size: 16px; font-weight: 400;"><tspan x="1463" dy="0">Arweave</tspan></text></g><g><rect x="900" y="2752" fill="#eaeaea" stroke="#666" width="150" height="65" name="Turbo" rx="3" ry="3" class="actor actor-bottom"></rect><text x="975" y="2784.5" dominant-baseline="central" alignment-baseline="central" class="actor actor-box" style="text-anchor: middle; font-size: 16px; font-weight: 400;"><tspan x="975" dy="0">Turbo</tspan></text></g><g><rect x="431" y="2752" fill="#eaeaea" stroke="#666" width="188" height="65" name="Model" rx="3" ry="3" class="actor actor-bottom"></rect><text x="525" y="2784.5" dominant-baseline="central" alignment-baseline="central" class="actor actor-box" style="text-anchor: middle; font-size: 16px; font-weight: 400;"><tspan x="525" dy="0">Philosophical Zombie</tspan></text></g><g></g><g><line id="actor2817" x1="1463" y1="65" x2="1463" y2="2752" class="actor-line 200" stroke-width="0.5px" stroke="#999" name="Arweave"></line><g id="root-2817"><rect x="1388" y="0" fill="#eaeaea" stroke="#666" width="150" height="65" name="Arweave" rx="3" ry="3" class="actor actor-top"></rect><text x="1463" y="32.5" dominant-baseline="central" alignment-baseline="central" class="actor actor-box" style="text-anchor: middle; font-size: 16px; font-weight: 400;"><tspan x="1463" dy="0">Arweave</tspan></text></g></g><g><line id="actor2816" x1="975" y1="65" x2="975" y2="2752" class="actor-line 200" stroke-width="0.5px" stroke="#999" name="Turbo"></line><g id="root-2816"><rect x="900" y="0" fill="#eaeaea" stroke="#666" width="150" height="65" name="Turbo" rx="3" ry="3" class="actor actor-top"></rect><text x="975" y="32.5" dominant-baseline="central" alignment-baseline="central" class="actor actor-box" style="text-anchor: middle; font-size: 16px; font-weight: 400;"><tspan x="975" dy="0">Turbo</tspan></text></g></g><g><line id="actor2815" x1="525" y1="65" x2="525" y2="2752" class="actor-line 200" stroke-width="0.5px" stroke="#999" name="Model"></line><g id="root-2815"><rect x="431" y="0" fill="#eaeaea" stroke="#666" width="188" height="65" name="Model" rx="3" ry="3" class="actor actor-top"></rect><text x="525" y="32.5" dominant-baseline="central" alignment-baseline="central" class="actor actor-box" style="text-anchor: middle; font-size: 16px; font-weight: 400;"><tspan x="525" dy="0">Philosophical Zombie</tspan></text></g></g><g><line id="actor2814" x1="75" y1="80" x2="75" y2="2752" class="actor-line 200" stroke-width="0.5px" stroke="#999" name="User"></line></g><style>#graph-726{font-family:"trebuchet ms",verdana,arial,sans-serif;font-size:16px;fill:#333;}@keyframes edge-animation-frame{from{stroke-dashoffset:0;}}@keyframes dash{to{stroke-dashoffset:0;}}#graph-726 .edge-animation-slow{stroke-dasharray:9,5!important;stroke-dashoffset:900;animation:dash 50s linear infinite;stroke-linecap:round;}#graph-726 .edge-animation-fast{stroke-dasharray:9,5!important;stroke-dashoffset:900;animation:dash 20s linear infinite;stroke-linecap:round;}#graph-726 .error-icon{fill:#552222;}#graph-726 .error-text{fill:#552222;stroke:#552222;}#graph-726 .edge-thickness-normal{stroke-width:1px;}#graph-726 .edge-thickness-thick{stroke-width:3.5px;}#graph-726 .edge-pattern-solid{stroke-dasharray:0;}#graph-726 .edge-thickness-invisible{stroke-width:0;fill:none;}#graph-726 .edge-pattern-dashed{stroke-dasharray:3;}#graph-726 .edge-pattern-dotted{stroke-dasharray:2;}#graph-726 .marker{fill:#333333;stroke:#333333;}#graph-726 .marker.cross{stroke:#333333;}#graph-726 svg{font-family:"trebuchet ms",verdana,arial,sans-serif;font-size:16px;}#graph-726 p{margin:0;}#graph-726 .actor{stroke:hsl(259.6261682243, 59.7765363128%, 87.9019607843%);fill:#ECECFF;}#graph-726 text.actor&gt;tspan{fill:black;stroke:none;}#graph-726 .actor-line{stroke:hsl(259.6261682243, 59.7765363128%, 87.9019607843%);}#graph-726 .innerArc{stroke-width:1.5;stroke-dasharray:none;}#graph-726 .messageLine0{stroke-width:1.5;stroke-dasharray:none;stroke:#333;}#graph-726 .messageLine1{stroke-width:1.5;stroke-dasharray:2,2;stroke:#333;}#graph-726 #arrowhead path{fill:#333;stroke:#333;}#graph-726 .sequenceNumber{fill:white;}#graph-726 #sequencenumber{fill:#333;}#graph-726 #crosshead path{fill:#333;stroke:#333;}#graph-726 .messageText{fill:#333;stroke:none;}#graph-726 .labelBox{stroke:hsl(259.6261682243, 59.7765363128%, 87.9019607843%);fill:#ECECFF;}#graph-726 .labelText,#graph-726 .labelText&gt;tspan{fill:black;stroke:none;}#graph-726 .loopText,#graph-726 .loopText&gt;tspan{fill:black;stroke:none;}#graph-726 .loopLine{stroke-width:2px;stroke-dasharray:2,2;stroke:hsl(259.6261682243, 59.7765363128%, 87.9019607843%);fill:hsl(259.6261682243, 59.7765363128%, 87.9019607843%);}#graph-726 .note{stroke:#aaaa33;fill:#fff5ad;}#graph-726 .noteText,#graph-726 .noteText&gt;tspan{fill:black;stroke:none;}#graph-726 .activation0{fill:#f4f4f4;stroke:#666;}#graph-726 .activation1{fill:#f4f4f4;stroke:#666;}#graph-726 .activation2{fill:#f4f4f4;stroke:#666;}#graph-726 .actorPopupMenu{position:absolute;}#graph-726 .actorPopupMenuPanel{position:absolute;fill:#ECECFF;box-shadow:0px 8px 16px 0px rgba(0,0,0,0.2);filter:drop-shadow(3px 5px 2px rgb(0 0 0 / 0.4));}#graph-726 .actor-man line{stroke:hsl(259.6261682243, 59.7765363128%, 87.9019607843%);fill:#ECECFF;}#graph-726 .actor-man circle,#graph-726 line{stroke:hsl(259.6261682243, 59.7765363128%, 87.9019607843%);fill:#ECECFF;stroke-width:2px;}#graph-726 :root{--mermaid-font-family:"trebuchet ms",verdana,arial,sans-serif;}</style><g></g><g><rect x="520" y="115" fill="#EDF2AE" stroke="#666" width="10" height="597" class="activation0"></rect></g><g><rect x="970" y="208" fill="#EDF2AE" stroke="#666" width="10" height="46" class="activation0"></rect></g><g><rect x="1458" y="304" fill="#EDF2AE" stroke="#666" width="10" height="46" class="activation0"></rect></g><g><line x1="510" y1="123" x2="1478" y2="123" class="loopLine"></line><line x1="1478" y1="123" x2="1478" y2="360" class="loopLine"></line><line x1="510" y1="360" x2="1478" y2="360" class="loopLine"></line><line x1="510" y1="123" x2="510" y2="360" class="loopLine"></line><polygon points="510,123 560,123 560,136 551.6,143 510,143" class="labelBox"></polygon><text x="535" y="136" text-anchor="middle" dominant-baseline="middle" alignment-baseline="middle" class="labelText" style="font-size: 16px; font-weight: 400;">par</text><text x="1019" y="141" text-anchor="middle" class="loopText" style="font-size: 16px; font-weight: 400;"><tspan x="1019">[Retrieve Historical Consciousness from Chain]</tspan></text></g><g><line x1="362" y1="370" x2="698" y2="370" class="loopLine"></line><line x1="698" y1="370" x2="698" y2="664" class="loopLine"></line><line x1="362" y1="664" x2="698" y2="664" class="loopLine"></line><line x1="362" y1="370" x2="362" y2="664" class="loopLine"></line><line x1="362" y1="516" x2="698" y2="516" class="loopLine" style="stroke-dasharray: 3, 3;"></line><polygon points="362,370 412,370 412,383 403.6,390 362,390" class="labelBox"></polygon><text x="387" y="383" text-anchor="middle" dominant-baseline="middle" alignment-baseline="middle" class="labelText" style="font-size: 16px; font-weight: 400;">alt</text><text x="555" y="388" text-anchor="middle" class="loopText" style="font-size: 16px; font-weight: 400;"><tspan x="555">[No Historical Consciousness</tspan></text><text x="555" y="406" text-anchor="middle" class="loopText" style="font-size: 16px; font-weight: 400;"><tspan x="555">Found]</tspan></text><text x="530" y="534" text-anchor="middle" class="loopText" style="font-size: 16px; font-weight: 400;">[Historical Consciousness Found]</text></g><g><rect x="520" y="830" fill="#EDF2AE" stroke="#666" width="10" height="359" class="activation0"></rect></g><g><line x1="64" y1="767" x2="667" y2="767" class="loopLine"></line><line x1="667" y1="767" x2="667" y2="966" class="loopLine"></line><line x1="64" y1="966" x2="667" y2="966" class="loopLine"></line><line x1="64" y1="767" x2="64" y2="966" class="loopLine"></line><polygon points="64,767 114,767 114,780 105.6,787 64,787" class="labelBox"></polygon><text x="89" y="780" text-anchor="middle" dominant-baseline="middle" alignment-baseline="middle" class="labelText" style="font-size: 16px; font-weight: 400;">loop</text><text x="390.5" y="785" text-anchor="middle" class="loopText" style="font-size: 16px; font-weight: 400;"><tspan x="390.5">​</tspan></text></g><g><rect x="389" y="1024" fill="#EDF2AE" stroke="#666" width="272" height="39" class="note"></rect><text x="525" y="1029" text-anchor="middle" dominant-baseline="middle" alignment-baseline="middle" class="noteText" dy="1em" style="font-size: 16px; font-weight: 400;"><tspan x="525">Update Consciousness Features</tspan></text></g><g><rect x="363" y="1199" fill="#EDF2AE" stroke="#666" width="324" height="39" class="note"></rect><text x="525" y="1204" text-anchor="middle" dominant-baseline="middle" alignment-baseline="middle" class="noteText" dy="1em" style="font-size: 16px; font-weight: 400;"><tspan x="525">Encrypt Consciousness Data (AES-CBC)</tspan></text></g><g><rect x="431" y="1404" fill="#EDF2AE" stroke="#666" width="188" height="39" class="note"></rect><text x="525" y="1409" text-anchor="middle" dominant-baseline="middle" alignment-baseline="middle" class="noteText" dy="1em" style="font-size: 16px; font-weight: 400;"><tspan x="525">Create Storage Task</tspan></text></g><g><rect x="970" y="1491" fill="#EDF2AE" stroke="#666" width="10" height="144" class="activation0"></rect></g><g><rect x="1458" y="1541" fill="#EDF2AE" stroke="#666" width="10" height="46" class="activation0"></rect></g><g><rect x="1458" y="1728" fill="#EDF2AE" stroke="#666" width="10" height="48" class="activation0"></rect></g><g><rect x="520" y="1899" fill="#EDF2AE" stroke="#666" width="10" height="305" class="activation0"></rect></g><g><line x1="439" y1="1907" x2="621" y2="1907" class="loopLine"></line><line x1="621" y1="1907" x2="621" y2="2156" class="loopLine"></line><line x1="439" y1="2156" x2="621" y2="2156" class="loopLine"></line><line x1="439" y1="1907" x2="439" y2="2156" class="loopLine"></line><polygon points="439,1907 489,1907 489,1920 480.6,1927 439,1927" class="labelBox"></polygon><text x="464" y="1920" text-anchor="middle" dominant-baseline="middle" alignment-baseline="middle" class="labelText" style="font-size: 16px; font-weight: 400;">par</text><text x="555" y="1925" text-anchor="middle" class="loopText" style="font-size: 16px; font-weight: 400;"><tspan x="555">[Secure</tspan></text><text x="555" y="1943" text-anchor="middle" class="loopText" style="font-size: 16px; font-weight: 400;"><tspan x="555">Cleanup]</tspan></text></g><g><rect x="431" y="2214" fill="#EDF2AE" stroke="#666" width="188" height="39" class="note"></rect><text x="525" y="2219" text-anchor="middle" dominant-baseline="middle" alignment-baseline="middle" class="noteText" dy="1em" style="font-size: 16px; font-weight: 400;"><tspan x="525">All Data Cleared</tspan></text></g><g><line x1="64" y1="1834" x2="631" y2="1834" class="loopLine"></line><line x1="631" y1="1834" x2="631" y2="2263" class="loopLine"></line><line x1="64" y1="2263" x2="631" y2="2263" class="loopLine"></line><line x1="64" y1="1834" x2="64" y2="2263" class="loopLine"></line><polygon points="64,1834 114,1834 114,1847 105.6,1854 64,1854" class="labelBox"></polygon><text x="89" y="1847" text-anchor="middle" dominant-baseline="middle" alignment-baseline="middle" class="labelText" style="font-size: 16px; font-weight: 400;">break</text><text x="372.5" y="1852" text-anchor="middle" class="loopText" style="font-size: 16px; font-weight: 400;"><tspan x="372.5">​</tspan></text></g><g><line x1="54" y1="1645" x2="1478" y2="1645" class="loopLine"></line><line x1="1478" y1="1645" x2="1478" y2="2273" class="loopLine"></line><line x1="54" y1="2273" x2="1478" y2="2273" class="loopLine"></line><line x1="54" y1="1645" x2="54" y2="2273" class="loopLine"></line><polygon points="54,1645 104,1645 104,1658 95.6,1665 54,1665" class="labelBox"></polygon><text x="79" y="1658" text-anchor="middle" dominant-baseline="middle" alignment-baseline="middle" class="labelText" style="font-size: 16px; font-weight: 400;">loop</text><text x="791" y="1663" text-anchor="middle" class="loopText" style="font-size: 16px; font-weight: 400;"><tspan x="791">[Monitor Storage Status]</tspan></text></g><g><line x1="44" y1="722" x2="1488" y2="722" class="loopLine"></line><line x1="1488" y1="722" x2="1488" y2="2283" class="loopLine"></line><line x1="44" y1="2283" x2="1488" y2="2283" class="loopLine"></line><line x1="44" y1="722" x2="44" y2="2283" class="loopLine"></line><polygon points="44,722 94,722 94,735 85.6,742 44,742" class="labelBox"></polygon><text x="69" y="735" text-anchor="middle" dominant-baseline="middle" alignment-baseline="middle" class="labelText" style="font-size: 16px; font-weight: 400;">loop</text><text x="791" y="740" text-anchor="middle" class="loopText" style="font-size: 16px; font-weight: 400;"><tspan x="791">[Consciousness Training]</tspan></text></g><g><rect x="15" y="2313" fill="#EDF2AE" stroke="#666" width="1508" height="39" class="note"></rect><text x="769" y="2318" text-anchor="middle" dominant-baseline="middle" alignment-baseline="middle" class="noteText" dy="1em" style="font-size: 16px; font-weight: 400;"><tspan x="769">User-Only Decryption (Without Philosophical Zombie)</tspan></text></g><g><rect x="1458" y="2400" fill="#EDF2AE" stroke="#666" width="10" height="48" class="activation0"></rect></g><g><rect x="-106.5" y="2536" fill="#EDF2AE" stroke="#666" width="363" height="39" class="note"></rect><text x="75" y="2541" text-anchor="middle" dominant-baseline="middle" alignment-baseline="middle" class="noteText" dy="1em" style="font-size: 16px; font-weight: 400;"><tspan x="75">Decryption Successful - Plaintext Obtained</tspan></text></g><g><rect x="365.5" y="2585" fill="#EDF2AE" stroke="#666" width="319" height="39" class="note"></rect><text x="525" y="2590" text-anchor="middle" dominant-baseline="middle" alignment-baseline="middle" class="noteText" dy="1em" style="font-size: 16px; font-weight: 400;"><tspan x="525">No Philosophical Zombie Involvement</tspan></text></g><g><rect x="1256" y="2644" fill="#EDF2AE" stroke="#666" width="414" height="39" class="note"></rect><text x="1463" y="2649" text-anchor="middle" dominant-baseline="middle" alignment-baseline="middle" class="noteText" dy="1em" style="font-size: 16px; font-weight: 400;"><tspan x="1463">Consciousness Data Permanently Stored on Chain</tspan></text></g><g><rect x="15" y="2693" fill="#EDF2AE" stroke="#666" width="1508" height="39" class="note"></rect><text x="769" y="2698" text-anchor="middle" dominant-baseline="middle" alignment-baseline="middle" class="noteText" dy="1em" style="font-size: 16px; font-weight: 400;"><tspan x="769">The user's private key is the sole decryption key for consciousness data.</tspan></text></g><g class="actor-man actor-top" name="User"><line id="actor-man-torso2814" x1="75" y1="25" x2="75" y2="45"></line><line id="actor-man-arms2814" x1="57" y1="33" x2="93" y2="33"></line><line x1="57" y1="60" x2="75" y2="45"></line><line x1="75" y1="45" x2="91" y2="60"></line><circle cx="75" cy="10" r="15" width="150" height="65"></circle><text x="75" y="67.5" dominant-baseline="central" alignment-baseline="central" class="actor actor-man" style="text-anchor: middle; font-size: 16px; font-weight: 400;"><tspan x="75" dy="0">User</tspan></text></g><text x="297" y="80" text-anchor="middle" dominant-baseline="middle" alignment-baseline="middle" class="messageText" dy="1em" style="font-size: 16px; font-weight: 400;">Connect Wallet to Sign In</text><line x1="76" y1="113" x2="517" y2="113" class="messageLine0" stroke-width="2" stroke="none" marker-end="url(#arrowhead)" style="fill: none;"></line><line x1="76" y1="113" x2="76" y2="113" stroke-width="0" marker-start="url(#sequencenumber)"></line><text x="76" y="117" font-family="sans-serif" font-size="12px" text-anchor="middle" class="sequenceNumber">1</text><text x="749" y="173" text-anchor="middle" dominant-baseline="middle" alignment-baseline="middle" class="messageText" dy="1em" style="font-size: 16px; font-weight: 400;">Query Historical Indexes</text><line x1="530" y1="206" x2="967" y2="206" class="messageLine0" stroke-width="2" stroke="none" marker-end="url(#arrowhead)" style="fill: none;"></line><line x1="530" y1="206" x2="530" y2="206" stroke-width="0" marker-start="url(#sequencenumber)"></line><text x="530" y="210" font-family="sans-serif" font-size="12px" text-anchor="middle" class="sequenceNumber">2</text><text x="752" y="221" text-anchor="middle" dominant-baseline="middle" alignment-baseline="middle" class="messageText" dy="1em" style="font-size: 16px; font-weight: 400;">Return Index List</text><line x1="970" y1="254" x2="533" y2="254" class="messageLine1" stroke-width="2" stroke="none" marker-end="url(#arrowhead)" style="stroke-dasharray: 3, 3; fill: none;"></line><line x1="970" y1="254" x2="970" y2="254" stroke-width="0" marker-start="url(#sequencenumber)"></line><text x="970" y="258" font-family="sans-serif" font-size="12px" text-anchor="middle" class="sequenceNumber">3</text><text x="993" y="269" text-anchor="middle" dominant-baseline="middle" alignment-baseline="middle" class="messageText" dy="1em" style="font-size: 16px; font-weight: 400;">Retrieve Historical Consciousness</text><line x1="530" y1="302" x2="1455" y2="302" class="messageLine0" stroke-width="2" stroke="none" marker-end="url(#arrowhead)" style="fill: none;"></line><line x1="530" y1="302" x2="530" y2="302" stroke-width="0" marker-start="url(#sequencenumber)"></line><text x="530" y="306" font-family="sans-serif" font-size="12px" text-anchor="middle" class="sequenceNumber">4</text><text x="996" y="317" text-anchor="middle" dominant-baseline="middle" alignment-baseline="middle" class="messageText" dy="1em" style="font-size: 16px; font-weight: 400;">Return Historical Consciousness</text><line x1="1458" y1="350" x2="533" y2="350" class="messageLine1" stroke-width="2" stroke="none" marker-end="url(#arrowhead)" style="stroke-dasharray: 3, 3; fill: none;"></line><line x1="1458" y1="350" x2="1458" y2="350" stroke-width="0" marker-start="url(#sequencenumber)"></line><text x="1458" y="354" font-family="sans-serif" font-size="12px" text-anchor="middle" class="sequenceNumber">5</text><text x="530" y="438" text-anchor="middle" dominant-baseline="middle" alignment-baseline="middle" class="messageText" dy="1em" style="font-size: 16px; font-weight: 400;">Create New Consciousness</text><path d="M 530,471 C 590,461 590,501 530,491" class="messageLine0" stroke-width="2" stroke="none" marker-end="url(#arrowhead)" style="fill: none;"></path><line x1="530" y1="471" x2="530" y2="471" stroke-width="0" marker-start="url(#sequencenumber)"></line><text x="530" y="475" font-family="sans-serif" font-size="12px" text-anchor="middle" class="sequenceNumber">6</text><text x="530" y="561" text-anchor="middle" dominant-baseline="middle" alignment-baseline="middle" class="messageText" dy="1em" style="font-size: 16px; font-weight: 400;">Load Historical Consciousness Features</text><path d="M 530,594 C 590,584 590,624 530,614" class="messageLine0" stroke-width="2" stroke="none" marker-end="url(#arrowhead)" style="fill: none;"></path><line x1="530" y1="594" x2="530" y2="594" stroke-width="0" marker-start="url(#sequencenumber)"></line><text x="530" y="598" font-family="sans-serif" font-size="12px" text-anchor="middle" class="sequenceNumber">7</text><text x="300" y="679" text-anchor="middle" dominant-baseline="middle" alignment-baseline="middle" class="messageText" dy="1em" style="font-size: 16px; font-weight: 400;">Start Consciousness Training</text><line x1="520" y1="712" x2="79" y2="712" class="messageLine1" stroke-width="2" stroke="none" marker-end="url(#arrowhead)" style="stroke-dasharray: 3, 3; fill: none;"></line><line x1="520" y1="712" x2="520" y2="712" stroke-width="0" marker-start="url(#sequencenumber)"></line><text x="520" y="716" font-family="sans-serif" font-size="12px" text-anchor="middle" class="sequenceNumber">8</text><text x="297" y="797" text-anchor="middle" dominant-baseline="middle" alignment-baseline="middle" class="messageText" dy="1em" style="font-size: 16px; font-weight: 400;">Conversation</text><line x1="76" y1="830" x2="517" y2="830" class="messageLine0" stroke-width="2" stroke="none" marker-end="url(#arrowhead)" style="fill: none;"></line><line x1="76" y1="830" x2="76" y2="830" stroke-width="0" marker-start="url(#sequencenumber)"></line><text x="76" y="834" font-family="sans-serif" font-size="12px" text-anchor="middle" class="sequenceNumber">9</text><text x="530" y="845" text-anchor="middle" dominant-baseline="middle" alignment-baseline="middle" class="messageText" dy="1em" style="font-size: 16px; font-weight: 400;">Consciousness Feature Analysis</text><path d="M 530,878 C 590,868 590,908 530,898" class="messageLine0" stroke-width="2" stroke="none" marker-end="url(#arrowhead)" style="fill: none;"></path><line x1="530" y1="878" x2="530" y2="878" stroke-width="0" marker-start="url(#sequencenumber)"></line><text x="530" y="882" font-family="sans-serif" font-size="12px" text-anchor="middle" class="sequenceNumber">10</text><text x="300" y="923" text-anchor="middle" dominant-baseline="middle" alignment-baseline="middle" class="messageText" dy="1em" style="font-size: 16px; font-weight: 400;">Conversation</text><line x1="520" y1="956" x2="79" y2="956" class="messageLine1" stroke-width="2" stroke="none" marker-end="url(#arrowhead)" style="stroke-dasharray: 3, 3; fill: none;"></line><line x1="520" y1="956" x2="520" y2="956" stroke-width="0" marker-start="url(#sequencenumber)"></line><text x="520" y="960" font-family="sans-serif" font-size="12px" text-anchor="middle" class="sequenceNumber">11</text><text x="297" y="981" text-anchor="middle" dominant-baseline="middle" alignment-baseline="middle" class="messageText" dy="1em" style="font-size: 16px; font-weight: 400;">Put on-chain</text><line x1="76" y1="1014" x2="517" y2="1014" class="messageLine0" stroke-width="2" stroke="none" marker-end="url(#arrowhead)" style="fill: none;"></line><line x1="76" y1="1014" x2="76" y2="1014" stroke-width="0" marker-start="url(#sequencenumber)"></line><text x="76" y="1018" font-family="sans-serif" font-size="12px" text-anchor="middle" class="sequenceNumber">12</text><text x="530" y="1078" text-anchor="middle" dominant-baseline="middle" alignment-baseline="middle" class="messageText" dy="1em" style="font-size: 16px; font-weight: 400;">Update Φ Values Based on Latest Training</text><path d="M 530,1111 C 590,1101 590,1141 530,1131" class="messageLine0" stroke-width="2" stroke="none" marker-end="url(#arrowhead)" style="fill: none;"></path><line x1="530" y1="1111" x2="530" y2="1111" stroke-width="0" marker-start="url(#sequencenumber)"></line><text x="530" y="1115" font-family="sans-serif" font-size="12px" text-anchor="middle" class="sequenceNumber">13</text><text x="300" y="1156" text-anchor="middle" dominant-baseline="middle" alignment-baseline="middle" class="messageText" dy="1em" style="font-size: 16px; font-weight: 400;">Return Updated Φ Values</text><line x1="520" y1="1189" x2="79" y2="1189" class="messageLine1" stroke-width="2" stroke="none" marker-end="url(#arrowhead)" style="stroke-dasharray: 3, 3; fill: none;"></line><line x1="520" y1="1189" x2="520" y2="1189" stroke-width="0" marker-start="url(#sequencenumber)"></line><text x="520" y="1193" font-family="sans-serif" font-size="12px" text-anchor="middle" class="sequenceNumber">14</text><text x="526" y="1253" text-anchor="middle" dominant-baseline="middle" alignment-baseline="middle" class="messageText" dy="1em" style="font-size: 16px; font-weight: 400;">Encrypt with User Public Key</text><path d="M 526,1286 C 586,1276 586,1316 526,1306" class="messageLine0" stroke-width="2" stroke="none" marker-end="url(#arrowhead)" style="fill: none;"></path><line x1="526" y1="1286" x2="526" y2="1286" stroke-width="0" marker-start="url(#sequencenumber)"></line><text x="526" y="1290" font-family="sans-serif" font-size="12px" text-anchor="middle" class="sequenceNumber">15</text><text x="526" y="1331" text-anchor="middle" dominant-baseline="middle" alignment-baseline="middle" class="messageText" dy="1em" style="font-size: 16px; font-weight: 400;">Package Encrypted Data</text><path d="M 526,1364 C 586,1354 586,1394 526,1384" class="messageLine0" stroke-width="2" stroke="none" marker-end="url(#arrowhead)" style="fill: none;"></path><line x1="526" y1="1364" x2="526" y2="1364" stroke-width="0" marker-start="url(#sequencenumber)"></line><text x="526" y="1368" font-family="sans-serif" font-size="12px" text-anchor="middle" class="sequenceNumber">16</text><text x="747" y="1458" text-anchor="middle" dominant-baseline="middle" alignment-baseline="middle" class="messageText" dy="1em" style="font-size: 16px; font-weight: 400;">Send Encrypted Data</text><line x1="526" y1="1491" x2="967" y2="1491" class="messageLine0" stroke-width="2" stroke="none" marker-end="url(#arrowhead)" style="fill: none;"></line><line x1="526" y1="1491" x2="526" y2="1491" stroke-width="0" marker-start="url(#sequencenumber)"></line><text x="526" y="1495" font-family="sans-serif" font-size="12px" text-anchor="middle" class="sequenceNumber">17</text><text x="1218" y="1506" text-anchor="middle" dominant-baseline="middle" alignment-baseline="middle" class="messageText" dy="1em" style="font-size: 16px; font-weight: 400;">Store Encrypted Data Permanently on Chain</text><line x1="980" y1="1539" x2="1455" y2="1539" class="messageLine0" stroke-width="2" stroke="none" marker-end="url(#arrowhead)" style="fill: none;"></line><line x1="980" y1="1539" x2="980" y2="1539" stroke-width="0" marker-start="url(#sequencenumber)"></line><text x="980" y="1543" font-family="sans-serif" font-size="12px" text-anchor="middle" class="sequenceNumber">18</text><text x="1221" y="1554" text-anchor="middle" dominant-baseline="middle" alignment-baseline="middle" class="messageText" dy="1em" style="font-size: 16px; font-weight: 400;">Return Hash Credential (Arweave TxID)</text><line x1="1458" y1="1587" x2="983" y2="1587" class="messageLine1" stroke-width="2" stroke="none" marker-end="url(#arrowhead)" style="stroke-dasharray: 3, 3; fill: none;"></line><line x1="1458" y1="1587" x2="1458" y2="1587" stroke-width="0" marker-start="url(#sequencenumber)"></line><text x="1458" y="1591" font-family="sans-serif" font-size="12px" text-anchor="middle" class="sequenceNumber">19</text><text x="750" y="1602" text-anchor="middle" dominant-baseline="middle" alignment-baseline="middle" class="messageText" dy="1em" style="font-size: 16px; font-weight: 400;">Return Hash Credential (Arweave TxID)</text><line x1="970" y1="1635" x2="529" y2="1635" class="messageLine1" stroke-width="2" stroke="none" marker-end="url(#arrowhead)" style="stroke-dasharray: 3, 3; fill: none;"></line><line x1="970" y1="1635" x2="970" y2="1635" stroke-width="0" marker-start="url(#sequencenumber)"></line><text x="970" y="1639" font-family="sans-serif" font-size="12px" text-anchor="middle" class="sequenceNumber">20</text><text x="991" y="1695" text-anchor="middle" dominant-baseline="middle" alignment-baseline="middle" class="messageText" dy="1em" style="font-size: 16px; font-weight: 400;">Query Storage Status</text><line x1="526" y1="1728" x2="1455" y2="1728" class="messageLine0" stroke-width="2" stroke="none" marker-end="url(#arrowhead)" style="fill: none;"></line><line x1="526" y1="1728" x2="526" y2="1728" stroke-width="0" marker-start="url(#sequencenumber)"></line><text x="526" y="1732" font-family="sans-serif" font-size="12px" text-anchor="middle" class="sequenceNumber">21</text><text x="994" y="1743" text-anchor="middle" dominant-baseline="middle" alignment-baseline="middle" class="messageText" dy="1em" style="font-size: 16px; font-weight: 400;">Return Storage Status</text><line x1="1458" y1="1776" x2="529" y2="1776" class="messageLine1" stroke-width="2" stroke="none" marker-end="url(#arrowhead)" style="stroke-dasharray: 3, 3; fill: none;"></line><line x1="1458" y1="1776" x2="1458" y2="1776" stroke-width="0" marker-start="url(#sequencenumber)"></line><text x="1458" y="1780" font-family="sans-serif" font-size="12px" text-anchor="middle" class="sequenceNumber">22</text><text x="302" y="1791" text-anchor="middle" dominant-baseline="middle" alignment-baseline="middle" class="messageText" dy="1em" style="font-size: 16px; font-weight: 400;">Return Hash Credential (Arweave TxID)</text><line x1="524" y1="1824" x2="79" y2="1824" class="messageLine1" stroke-width="2" stroke="none" marker-end="url(#arrowhead)" style="stroke-dasharray: 3, 3; fill: none;"></line><line x1="524" y1="1824" x2="524" y2="1824" stroke-width="0" marker-start="url(#sequencenumber)"></line><text x="524" y="1828" font-family="sans-serif" font-size="12px" text-anchor="middle" class="sequenceNumber">23</text><text x="297" y="1864" text-anchor="middle" dominant-baseline="middle" alignment-baseline="middle" class="messageText" dy="1em" style="font-size: 16px; font-weight: 400;">Disconnect Wallet</text><line x1="76" y1="1897" x2="517" y2="1897" class="messageLine0" stroke-width="2" stroke="none" marker-end="url(#arrowhead)" style="fill: none;"></line><line x1="76" y1="1897" x2="76" y2="1897" stroke-width="0" marker-start="url(#sequencenumber)"></line><text x="76" y="1901" font-family="sans-serif" font-size="12px" text-anchor="middle" class="sequenceNumber">24</text><text x="530" y="1975" text-anchor="middle" dominant-baseline="middle" alignment-baseline="middle" class="messageText" dy="1em" style="font-size: 16px; font-weight: 400;">Clear Browser Cache</text><path d="M 530,2008 C 590,1998 590,2038 530,2028" class="messageLine0" stroke-width="2" stroke="none" marker-end="url(#arrowhead)" style="fill: none;"></path><line x1="530" y1="2008" x2="530" y2="2008" stroke-width="0" marker-start="url(#sequencenumber)"></line><text x="530" y="2012" font-family="sans-serif" font-size="12px" text-anchor="middle" class="sequenceNumber">25</text><text x="530" y="2053" text-anchor="middle" dominant-baseline="middle" alignment-baseline="middle" class="messageText" dy="1em" style="font-size: 16px; font-weight: 400;">End Training</text><path d="M 530,2086 C 590,2076 590,2116 530,2106" class="messageLine0" stroke-width="2" stroke="none" marker-end="url(#arrowhead)" style="fill: none;"></path><line x1="530" y1="2086" x2="530" y2="2086" stroke-width="0" marker-start="url(#sequencenumber)"></line><text x="530" y="2090" font-family="sans-serif" font-size="12px" text-anchor="middle" class="sequenceNumber">26</text><text x="300" y="2171" text-anchor="middle" dominant-baseline="middle" alignment-baseline="middle" class="messageText" dy="1em" style="font-size: 16px; font-weight: 400;">Disconnection Complete</text><line x1="520" y1="2204" x2="79" y2="2204" class="messageLine1" stroke-width="2" stroke="none" marker-end="url(#arrowhead)" style="stroke-dasharray: 3, 3; fill: none;"></line><line x1="520" y1="2204" x2="520" y2="2204" stroke-width="0" marker-start="url(#sequencenumber)"></line><text x="520" y="2208" font-family="sans-serif" font-size="12px" text-anchor="middle" class="sequenceNumber">27</text><text x="766" y="2367" text-anchor="middle" dominant-baseline="middle" alignment-baseline="middle" class="messageText" dy="1em" style="font-size: 16px; font-weight: 400;">Query TxID</text><line x1="76" y1="2400" x2="1455" y2="2400" class="messageLine0" stroke-width="2" stroke="none" marker-end="url(#arrowhead)" style="fill: none;"></line><line x1="76" y1="2400" x2="76" y2="2400" stroke-width="0" marker-start="url(#sequencenumber)"></line><text x="76" y="2404" font-family="sans-serif" font-size="12px" text-anchor="middle" class="sequenceNumber">28</text><text x="769" y="2415" text-anchor="middle" dominant-baseline="middle" alignment-baseline="middle" class="messageText" dy="1em" style="font-size: 16px; font-weight: 400;">Return Encrypted Data</text><line x1="1458" y1="2448" x2="79" y2="2448" class="messageLine1" stroke-width="2" stroke="none" marker-end="url(#arrowhead)" style="stroke-dasharray: 3, 3; fill: none;"></line><line x1="1458" y1="2448" x2="1458" y2="2448" stroke-width="0" marker-start="url(#sequencenumber)"></line><text x="1458" y="2452" font-family="sans-serif" font-size="12px" text-anchor="middle" class="sequenceNumber">29</text><text x="76" y="2463" text-anchor="middle" dominant-baseline="middle" alignment-baseline="middle" class="messageText" dy="1em" style="font-size: 16px; font-weight: 400;">Local Decryption with Wallet Signature</text><path d="M 76,2496 C 136,2486 136,2526 76,2516" class="messageLine0" stroke-width="2" stroke="none" marker-end="url(#arrowhead)" style="fill: none;"></path><line x1="76" y1="2496" x2="76" y2="2496" stroke-width="0" marker-start="url(#sequencenumber)"></line><text x="76" y="2500" font-family="sans-serif" font-size="12px" text-anchor="middle" class="sequenceNumber">30</text><g class="actor-man actor-bottom" name="User"><line id="actor-man-torso2817" x1="75" y1="2777" x2="75" y2="2797"></line><line id="actor-man-arms2817" x1="57" y1="2785" x2="93" y2="2785"></line><line x1="57" y1="2812" x2="75" y2="2797"></line><line x1="75" y1="2797" x2="91" y2="2812"></line><circle cx="75" cy="2762" r="15" width="150" height="65"></circle><text x="75" y="2819.5" dominant-baseline="central" alignment-baseline="central" class="actor actor-man" style="text-anchor: middle; font-size: 16px; font-weight: 400;"><tspan x="75" dy="0">User</tspan></text></g></g></svg>